<svg xmlns="http://www.w3.org/2000/svg" viewBox="0 0 396.57 73.73"><defs><style>.cls-1{fill:#fff;}</style></defs><title>logo_vs</title><g id="Capa_2" data-name="Capa 2"><g id="svg959"><g id="layer1"><g id="g1360"><path id="path1265" class="cls-1" d="M363.43,42.36a7.2,7.2,0,0,0-4.3,1.52,7.42,7.42,0,0,0-2.85,5.79c-.1,3.94,1.66,6.76,5.2,7.81a10.76,10.76,0,0,0,5-.15,7,7,0,0,0,4-3.17,10.88,10.88,0,0,0,.65-6.42A7.65,7.65,0,0,0,363.43,42.36Zm.68,2.16a4.32,4.32,0,0,1,3.6,2.14,5.37,5.37,0,0,1,.85,2.89c.23,2.77-1,5.11-3.11,5.83a4.63,4.63,0,0,1-5.9-2.53,7.9,7.9,0,0,1-.64-2.88,5.31,5.31,0,0,1,.68-2.79,4.85,4.85,0,0,1,3.85-2.65A5,5,0,0,1,364.11,44.52Z"/><path id="path1257" class="cls-1" d="M314.1,21.77a17.79,17.79,0,0,0-6.6,1.28A17.6,17.6,0,0,0,296.67,36.9a24.67,24.67,0,0,0,.81,9.92,16,16,0,0,0,13.18,11.34,27.62,27.62,0,0,0,7.43,0,16.42,16.42,0,0,0,8.8-4.38,18.19,18.19,0,0,0,3-3.71,32.34,32.34,0,0,0-4.12-1.56l-3-1a20.31,20.31,0,0,1-2.13,2c-2.77,2.67-8,2.73-10.85.79a9.41,9.41,0,0,1-3.86-7l-.09-1.19h25.38l-.08-2.42a8.4,8.4,0,0,0-.45-3.87c-1.19-4.79-3.6-8.93-7.39-11.37a14.74,14.74,0,0,0-4.48-2.11,16.83,16.83,0,0,0-4.71-.51Zm.08,6.79a8,8,0,0,1,6.39,3.26,12.37,12.37,0,0,1,1.3,3.78l.1.54h-16a7.34,7.34,0,0,1,2.47-5.36A7.66,7.66,0,0,1,314.18,28.56Z"/><path id="path839-3-9" class="cls-1" d="M263.78,22.24a11.62,11.62,0,0,0-7,2.2,20.78,20.78,0,0,0-2,1.67,12.92,12.92,0,0,1-.75-2l-.47-1.4h-8.47v51h8.49V56.3a21.23,21.23,0,0,0,6.15,2.13,21.86,21.86,0,0,0,10.64-1,15.89,15.89,0,0,0,6.19-5.21A15.68,15.68,0,0,0,279,46.86a20,20,0,0,0,.94-6.17,18.85,18.85,0,0,0-.83-6.23,18.47,18.47,0,0,0-4.39-7.77A14.27,14.27,0,0,0,263.78,22.24Zm-2,8.61A9.05,9.05,0,0,1,264,31a8.27,8.27,0,0,1,5.69,4.7,10.37,10.37,0,0,1,1.28,4.78,8.91,8.91,0,0,1-6.32,9.17,7.67,7.67,0,0,1-5.83-.42,9.62,9.62,0,0,1-3.92-4.06c-2.51-5.18-.13-12,4.89-14A6.73,6.73,0,0,1,261.74,30.85Z"/><path id="path1273" class="cls-1" d="M120.23,20.19a22.87,22.87,0,0,0-9.08,1.51A17.53,17.53,0,0,0,100.42,36a19.36,19.36,0,0,0,1.79,11.5c2.91,6,7.63,9.28,14.35,10,7,.74,12.81-1.41,16.88-6.27a18.52,18.52,0,0,0,3.88-7.51c.35-1.31.38-1.6.38-4.71s0-3.37-.4-4.88a18.55,18.55,0,0,0-14.13-13.55A18.86,18.86,0,0,0,120.23,20.19Zm-1.17,8.71a7.75,7.75,0,0,1,6,2.56,10.94,10.94,0,0,1,2.75,4.32,7.68,7.68,0,0,1,.4,3.17,7.18,7.18,0,0,1-.4,3.17,10.91,10.91,0,0,1-2.75,4.32,7.6,7.6,0,0,1-4,2.3,10.73,10.73,0,0,1-3.66.07,9.62,9.62,0,0,1-6.5-5.39,9.65,9.65,0,0,1-1.06-4.64,9.68,9.68,0,0,1,3.22-7.5,8.63,8.63,0,0,1,6-2.38Z"/><path id="path1269" class="cls-1" d="M59.83,20.17a22.59,22.59,0,0,0-2.3.12,18.43,18.43,0,0,0-10.22,4c-4.49,3.6-6.86,9.32-6.53,15.77A18.69,18.69,0,0,0,46,52.27a16.9,16.9,0,0,0,11.08,5.17c6.41.68,11.77-1,15.82-5.1a18.6,18.6,0,0,0,5.18-9.84,29.71,29.71,0,0,0,0-7.3,18.52,18.52,0,0,0-18.26-15Zm-.5,8.71a8.44,8.44,0,0,1,4,.87,7.66,7.66,0,0,1,2.31,1.77,10.3,10.3,0,0,1,2.7,4.26A7.77,7.77,0,0,1,68.72,39a7.77,7.77,0,0,1-.38,3.17,10.24,10.24,0,0,1-2.7,4.26,7.51,7.51,0,0,1-4,2.36,10.73,10.73,0,0,1-3.66.07,9.53,9.53,0,0,1-6.48-5.39,9.57,9.57,0,0,1-1.05-5.17,9.49,9.49,0,0,1,2.78-6.56,8.85,8.85,0,0,1,6.14-2.81Z"/><circle id="path993-7" class="cls-1" cx="334.69" cy="55.04" r="2.67"/><circle id="path841-0-4" class="cls-1" cx="177.32" cy="13.24" r="5.57"/><path id="path853-9" class="cls-1" d="M230.49,48.13c0-6.38-.11-10.05-.14-10.62-.18-4.12-1.89-5.63-3.57-6.49a6,6,0,0,0-5.71.55,9.79,9.79,0,0,0-2.64,3.35c-.83,1.86-.83,1.95-.83,12.93v9.9H209.4l0-10.47V38.46l-.07-1.84c-.13-3.1-1.54-4.85-3.15-5.62a5.78,5.78,0,0,0-2.58-.51,6.4,6.4,0,0,0-2.92.68,6.19,6.19,0,0,0-3,3.09,7.8,7.8,0,0,0-.66,3.49c0,3.21-.13,9.63-.13,9.63l-.07,10.3H188.5l0-17.46,0-17.46h8.84l.08.4a6,6,0,0,0,.5,1.34,13.32,13.32,0,0,1,1.85-1.17,12.26,12.26,0,0,1,2.46-.91c2.39-.52,6.15-.53,8.44.47A13,13,0,0,1,214.67,26l1.1,1.28.95-.86a19.76,19.76,0,0,1,2-1.64,12.71,12.71,0,0,1,13.58-.85,10.68,10.68,0,0,1,3,2.45,10.11,10.11,0,0,1,2.57,4.06,18.16,18.16,0,0,1,.77,6.21l0,21.25-4.14,0h-4.09Z"/><path id="path1285" class="cls-1" d="M10.11,38.93C4.57,29.3,0,21.36,0,21.29s2.51-.12,5.63-.12H11.3l4.81,8.44c3.77,6.62,4.83,8.39,4.95,8.22s5.11-8.67,11.17-19L43.25,0H48.9C52,0,54.55,0,54.55.08s-5.87,10.43-10,17.56c-5.26,9.14-10.19,17.23-15.48,25.42-2.73,4.21-8.81,13.39-8.88,13.39s-4.57-7.89-10.1-17.52Z"/><path id="path1283" class="cls-1" d="M84.22,39.45V21.33H74.36V13.27h9.86V.72H94V13.27h8.55v8.06H94v35.4H84.22Z"/><path id="path1281" class="cls-1" d="M374.62,57.36c-.05-5.14-.11-9.07-.11-14.59H377v1.91l.7-.66a6.28,6.28,0,0,1,6.9-1.1,3.82,3.82,0,0,1,1.81,1.76c0,.1.34-.11.73-.5A6,6,0,0,1,392,42.37a4.33,4.33,0,0,1,3.71,2.05,5.78,5.78,0,0,1,.81,3.14l0,9.92h-2.74v-9.9a3,3,0,0,0-1.35-2.48,3.74,3.74,0,0,0-5.43,2.26,51.46,51.46,0,0,0-.15,5.32v4.78h-2.74v-5.3c0-5.58,0-5.89-.66-6.74-1.29-1.74-5.28-.37-6,1.89a35.76,35.76,0,0,0-.14,5v5.06l-2.71,0Z"/><path id="path1279" class="cls-1" d="M284.08,31V4.32h9.07V57.6h-9.07Z"/><path id="path1277" class="cls-1" d="M172.92,40.1V22.61H182v35h-9.07Z"/><path id="path1263" class="cls-1" d="M343.32,56.08a7.66,7.66,0,0,1-2.1-3.29,11.7,11.7,0,0,1-.05-5.27c.88-3.28,3.39-5,7.18-5,2.89,0,5.18,1.35,6,3.54.38,1,.38,1-.18,1.13-1.87.32-2.14.33-2.21.1a4.55,4.55,0,0,0-1.33-2,4.34,4.34,0,0,0-5.06,0,4,4,0,0,0-1.25,1.61,5.74,5.74,0,0,0-.73,2.85,8,8,0,0,0,.38,2.63A4.46,4.46,0,0,0,345.76,55a4.12,4.12,0,0,0,6.33-2.25c.16-.67.2-.73.54-.66s.8.11,1.34.16l1,.1-.1.45a7.45,7.45,0,0,1-1.57,2.94A7.29,7.29,0,0,1,348,57.79a7.6,7.6,0,0,1-4.72-1.71Z"/><path id="path1261" class="cls-1" d="M149.66,58.23c-3.71-.6-7.25-2.54-10.92-6l-1.28-1.2,2.92-3.82,3-3.88a4.85,4.85,0,0,1,1,.81A14,14,0,0,0,150.72,48a4.24,4.24,0,0,0,2.08.08,6.62,6.62,0,0,0,3.63-2,6.17,6.17,0,0,0,1.37-7.43,10.16,10.16,0,0,0-1.5-1.81,17,17,0,0,0-5.63-3.52,36.39,36.39,0,0,1-5.36-2.54,10.87,10.87,0,0,1-4.73-5.16A16.59,16.59,0,0,1,139.37,15a14.16,14.16,0,0,1,7.21-10.14c5.33-2.77,13.15-1.9,18.13,2,1.51,1.18,1.63,1.31,1.5,1.51s-1.31,1.65-2.77,3.44-2.68,3.26-2.7,3.29a18.81,18.81,0,0,1-1.81-1,16.66,16.66,0,0,0-5-2.08c-3.51-.6-6.6,3.39-5.61,7.24a6.18,6.18,0,0,0,1.94,3.19,17.16,17.16,0,0,0,5.14,3.31,36.16,36.16,0,0,1,8.09,4.94,15.54,15.54,0,0,1,4.34,8.79,16.31,16.31,0,0,1-1.73,9.58,15.89,15.89,0,0,1-3.31,4.42,15.4,15.4,0,0,1-7.3,4.32,16.24,16.24,0,0,1-5.87.39Z"/></g></g></g></g></svg>